<svg width="147" height="29" viewBox="0 0 147 29" fill="none" xmlns="http://www.w3.org/2000/svg">
<path d="M22.06 25.154C21.5747 25.154 21.1407 25.112 20.758 25.028C20.3753 24.944 19.9553 24.832 19.498 24.692C19.218 24.5893 19.008 24.5333 18.868 24.524L18.98 21.99H19.876L20.114 23.81C20.2727 23.9593 20.5293 24.0947 20.884 24.216C21.248 24.328 21.6447 24.384 22.074 24.384C22.7833 24.384 23.32 24.2253 23.684 23.908C24.0573 23.5907 24.244 23.152 24.244 22.592C24.244 22.228 24.1413 21.9153 23.936 21.654C23.74 21.3927 23.474 21.1687 23.138 20.982C22.8113 20.7953 22.3587 20.576 21.78 20.324C21.2573 20.0907 20.8 19.8527 20.408 19.61C20.0253 19.3673 19.6893 19.0453 19.4 18.644C19.12 18.2333 18.98 17.7433 18.98 17.174C18.98 16.6607 19.1153 16.2033 19.386 15.802C19.666 15.3913 20.0627 15.0693 20.576 14.836C21.0987 14.6027 21.7053 14.486 22.396 14.486C22.8253 14.486 23.2033 14.5187 23.53 14.584C23.866 14.6493 24.244 14.738 24.664 14.85C24.8507 14.9153 25.0093 14.9573 25.14 14.976L25.056 17.328H24.202L23.922 15.606C23.8287 15.5127 23.6327 15.424 23.334 15.34C23.0447 15.256 22.7273 15.214 22.382 15.214C21.738 15.214 21.248 15.3493 20.912 15.62C20.5853 15.8907 20.422 16.2827 20.422 16.796C20.422 17.1693 20.52 17.482 20.716 17.734C20.9213 17.986 21.1733 18.2007 21.472 18.378C21.7707 18.5553 22.2467 18.798 22.9 19.106C23.5067 19.3953 24.0013 19.6567 24.384 19.89C24.7667 20.1233 25.0933 20.4313 25.364 20.814C25.644 21.1873 25.784 21.6353 25.784 22.158C25.784 22.6527 25.644 23.1287 25.364 23.586C25.0933 24.0433 24.6733 24.4213 24.104 24.72C23.544 25.0093 22.8627 25.154 22.06 25.154ZM30.3865 25.154C29.2572 25.154 28.3938 24.7853 27.7965 24.048C27.2085 23.3107 26.9145 22.326 26.9145 21.094C26.9145 20.282 27.0685 19.568 27.3765 18.952C27.6845 18.336 28.1138 17.86 28.6645 17.524C29.2245 17.188 29.8592 17.02 30.5685 17.02C31.4365 17.02 32.1085 17.2627 32.5845 17.748C33.0698 18.224 33.3265 18.91 33.3545 19.806C33.3545 20.3753 33.3218 20.8093 33.2565 21.108H28.4405C28.4592 22.032 28.6738 22.7787 29.0845 23.348C29.4952 23.908 30.0785 24.188 30.8345 24.188C31.2078 24.188 31.5952 24.1227 31.9965 23.992C32.4072 23.852 32.7245 23.6887 32.9485 23.502L33.2145 24.118C32.9438 24.398 32.5425 24.6407 32.0105 24.846C31.4785 25.0513 30.9372 25.154 30.3865 25.154ZM31.8145 20.366C31.8425 20.17 31.8565 19.9693 31.8565 19.764C31.8472 19.1573 31.7165 18.6813 31.4645 18.336C31.2218 17.9813 30.8345 17.804 30.3025 17.804C29.7612 17.804 29.3272 18 29.0005 18.392C28.6832 18.784 28.5012 19.442 28.4545 20.366H31.8145ZM38.0017 25.154C36.8724 25.154 36.0091 24.7853 35.4117 24.048C34.8237 23.3107 34.5297 22.326 34.5297 21.094C34.5297 20.282 34.6837 19.568 34.9917 18.952C35.2997 18.336 35.7291 17.86 36.2797 17.524C36.8397 17.188 37.4744 17.02 38.1837 17.02C39.0517 17.02 39.7237 17.2627 40.1997 17.748C40.6851 18.224 40.9417 18.91 40.9697 19.806C40.9697 20.3753 40.9371 20.8093 40.8717 21.108H36.0557C36.0744 22.032 36.2891 22.7787 36.6997 23.348C37.1104 23.908 37.6937 24.188 38.4497 24.188C38.8231 24.188 39.2104 24.1227 39.6117 23.992C40.0224 23.852 40.3397 23.6887 40.5637 23.502L40.8297 24.118C40.5591 24.398 40.1577 24.6407 39.6257 24.846C39.0937 25.0513 38.5524 25.154 38.0017 25.154ZM39.4297 20.366C39.4577 20.17 39.4717 19.9693 39.4717 19.764C39.4624 19.1573 39.3317 18.6813 39.0797 18.336C38.8371 17.9813 38.4497 17.804 37.9177 17.804C37.3764 17.804 36.9424 18 36.6157 18.392C36.2984 18.784 36.1164 19.442 36.0697 20.366H39.4297ZM45.4812 24.314L46.3352 24.188V18.308L45.3272 18.056V17.3L47.3292 17.048L47.5812 17.23L47.6652 17.79L47.6512 18.238C47.9779 17.9393 48.4212 17.6687 48.9812 17.426C49.5506 17.174 50.0592 17.048 50.5072 17.048C51.0112 17.048 51.4172 17.132 51.7252 17.3C52.0332 17.468 52.2666 17.7293 52.4252 18.084C52.7239 17.832 53.1392 17.5987 53.6712 17.384C54.2126 17.16 54.7166 17.048 55.1832 17.048C55.7619 17.048 56.2146 17.16 56.5412 17.384C56.8679 17.5987 57.0966 17.9393 57.2272 18.406C57.3672 18.8633 57.4372 19.4793 57.4372 20.254V24.188L58.4452 24.314V25H55.1132V24.314L55.9812 24.188V20.296C55.9812 19.7547 55.9392 19.3253 55.8552 19.008C55.7806 18.6813 55.6312 18.4387 55.4072 18.28C55.1926 18.1213 54.8799 18.042 54.4692 18.042C54.1612 18.042 53.8346 18.112 53.4892 18.252C53.1439 18.3827 52.8499 18.5413 52.6072 18.728C52.6912 19.092 52.7332 19.61 52.7332 20.282V24.188L53.7272 24.314V25H50.3392V24.314L51.2632 24.188V20.268C51.2632 19.708 51.2259 19.274 51.1512 18.966C51.0859 18.658 50.9552 18.4293 50.7592 18.28C50.5632 18.1213 50.2646 18.042 49.8632 18.042C49.5272 18.042 49.1679 18.126 48.7852 18.294C48.4119 18.462 48.0852 18.658 47.8052 18.882V24.188L48.7432 24.314V25H45.4812V24.314ZM60.5609 28.486C60.4022 28.486 60.2435 28.4767 60.0849 28.458C59.9355 28.4393 59.8282 28.4113 59.7629 28.374V27.156C59.8189 27.1933 59.9262 27.2213 60.0849 27.24C60.2529 27.2587 60.4115 27.268 60.5609 27.268C61.0089 27.268 61.4009 27.1093 61.7369 26.792C62.0822 26.484 62.4135 25.8867 62.7309 25H62.0589L59.3989 18.07L58.7549 17.888V17.23H62.1289V17.888L61.0509 18.056L62.4229 22.186L63.0669 24.23L63.6689 22.172L64.9149 18.056L63.9769 17.888V17.23H66.7909V17.888L66.0909 18.056C64.7189 22.256 63.9115 24.6407 63.6689 25.21C63.3515 26.0127 63.0622 26.638 62.8009 27.086C62.5395 27.5433 62.2315 27.8887 61.8769 28.122C61.5222 28.3647 61.0835 28.486 60.5609 28.486ZM74.1069 28.78C72.9122 28.78 72.0442 28.5887 71.5029 28.206C70.9709 27.8327 70.7049 27.3147 70.7049 26.652C70.7049 26.2413 70.8309 25.8633 71.0829 25.518C71.3442 25.1727 71.6522 24.9113 72.0069 24.734C71.5775 24.4913 71.3629 24.0993 71.3629 23.558C71.3629 23.222 71.4609 22.9047 71.6569 22.606C71.8529 22.3073 72.1095 22.0787 72.4269 21.92C71.9602 21.7147 71.6009 21.4207 71.3489 21.038C71.1062 20.6553 70.9849 20.2027 70.9849 19.68C70.9849 19.1387 71.1342 18.6673 71.4329 18.266C71.7409 17.8647 72.1422 17.5567 72.6369 17.342C73.1409 17.1273 73.6729 17.02 74.2329 17.02C75.1755 17.02 75.9129 17.216 76.4449 17.608C76.5849 17.468 76.7995 17.3327 77.0889 17.202C77.3782 17.0713 77.6862 17.006 78.0129 17.006H78.4889V18.238H76.9489C77.1729 18.5833 77.2849 18.9847 77.2849 19.442C77.2849 19.9927 77.1449 20.4827 76.8649 20.912C76.5942 21.332 76.2115 21.6587 75.7169 21.892C75.2315 22.1253 74.6809 22.242 74.0649 22.242C73.6635 22.242 73.3042 22.2 72.9869 22.116C72.8562 22.2467 72.7489 22.3913 72.6649 22.55C72.5809 22.7087 72.5389 22.8627 72.5389 23.012C72.5389 23.348 72.6509 23.5813 72.8749 23.712C73.0989 23.8333 73.5002 23.894 74.0789 23.894H75.6609C76.5662 23.894 77.2382 24.0667 77.6769 24.412C78.1155 24.7573 78.3349 25.2473 78.3349 25.882C78.3349 26.414 78.1435 26.8993 77.7609 27.338C77.3782 27.786 76.8602 28.136 76.2069 28.388C75.5629 28.6493 74.8629 28.78 74.1069 28.78ZM74.2049 21.472C75.2689 21.472 75.8009 20.842 75.8009 19.582C75.8009 18.9567 75.6609 18.4993 75.3809 18.21C75.1102 17.9113 74.6995 17.762 74.1489 17.762C73.6355 17.762 73.2295 17.9067 72.9309 18.196C72.6322 18.476 72.4829 18.9287 72.4829 19.554C72.4829 20.142 72.6229 20.6087 72.9029 20.954C73.1922 21.2993 73.6262 21.472 74.2049 21.472ZM74.2329 27.968C74.6902 27.968 75.1195 27.898 75.5209 27.758C75.9315 27.6273 76.2629 27.4267 76.5149 27.156C76.7669 26.8947 76.8929 26.5867 76.8929 26.232C76.8929 25.812 76.7809 25.504 76.5569 25.308C76.3329 25.1213 75.8989 25.028 75.2549 25.028H73.6029C73.2295 25.028 72.9355 25.0047 72.7209 24.958C72.3382 25.378 72.1469 25.8493 72.1469 26.372C72.1469 26.8947 72.3055 27.2913 72.6229 27.562C72.9402 27.8327 73.4769 27.968 74.2329 27.968ZM79.2648 21.094C79.2648 20.254 79.4374 19.526 79.7828 18.91C80.1281 18.294 80.5808 17.8273 81.1408 17.51C81.7101 17.1833 82.3168 17.02 82.9608 17.02C84.1368 17.02 85.0188 17.3933 85.6068 18.14C86.2041 18.8867 86.5028 19.8667 86.5028 21.08C86.5028 21.9293 86.3301 22.662 85.9848 23.278C85.6394 23.894 85.1821 24.3607 84.6128 24.678C84.0528 24.9953 83.4508 25.154 82.8068 25.154C81.6308 25.154 80.7441 24.7807 80.1468 24.034C79.5588 23.2873 79.2648 22.3073 79.2648 21.094ZM82.8908 24.356C83.5348 24.356 84.0294 24.09 84.3748 23.558C84.7201 23.026 84.8928 22.2373 84.8928 21.192C84.8928 20.156 84.7341 19.3347 84.4168 18.728C84.0994 18.1213 83.5908 17.818 82.8908 17.818C82.2468 17.818 81.7474 18.084 81.3928 18.616C81.0474 19.148 80.8748 19.9367 80.8748 20.982C80.8748 22.018 81.0381 22.8393 81.3648 23.446C81.6914 24.0527 82.2001 24.356 82.8908 24.356ZM94.3763 21.024H88.7203V20.002H94.3763V21.024ZM98.9674 25.14C98.4354 25.14 98.0387 25.0187 97.7774 24.776C97.516 24.5333 97.3854 24.118 97.3854 23.53V18.154H96.3774V17.524C96.424 17.5147 96.5547 17.482 96.7694 17.426C96.984 17.37 97.1287 17.3187 97.2034 17.272C97.3527 17.188 97.4694 17.02 97.5534 16.768C97.628 16.5907 97.7167 16.306 97.8194 15.914C97.922 15.522 97.9827 15.2887 98.0014 15.214H98.8274L98.8554 17.23H101.193V18.154H98.8554V22.452C98.8554 22.984 98.8694 23.3573 98.8974 23.572C98.9347 23.7867 99.0047 23.9267 99.1074 23.992C99.2194 24.0573 99.406 24.09 99.6674 24.09C99.9194 24.09 100.195 24.0573 100.493 23.992C100.801 23.9267 101.039 23.8567 101.207 23.782L101.417 24.412C101.193 24.58 100.829 24.7433 100.325 24.902C99.8307 25.0607 99.378 25.14 98.9674 25.14ZM102.275 21.094C102.275 20.254 102.447 19.526 102.793 18.91C103.138 18.294 103.591 17.8273 104.151 17.51C104.72 17.1833 105.327 17.02 105.971 17.02C107.147 17.02 108.029 17.3933 108.617 18.14C109.214 18.8867 109.513 19.8667 109.513 21.08C109.513 21.9293 109.34 22.662 108.995 23.278C108.649 23.894 108.192 24.3607 107.623 24.678C107.063 24.9953 106.461 25.154 105.817 25.154C104.641 25.154 103.754 24.7807 103.157 24.034C102.569 23.2873 102.275 22.3073 102.275 21.094ZM105.901 24.356C106.545 24.356 107.039 24.09 107.385 23.558C107.73 23.026 107.903 22.2373 107.903 21.192C107.903 20.156 107.744 19.3347 107.427 18.728C107.109 18.1213 106.601 17.818 105.901 17.818C105.257 17.818 104.757 18.084 104.403 18.616C104.057 19.148 103.885 19.9367 103.885 20.982C103.885 22.018 104.048 22.8393 104.375 23.446C104.701 24.0527 105.21 24.356 105.901 24.356ZM117.558 25.154C116.429 25.154 115.566 24.7853 114.968 24.048C114.38 23.3107 114.086 22.326 114.086 21.094C114.086 20.282 114.24 19.568 114.548 18.952C114.856 18.336 115.286 17.86 115.836 17.524C116.396 17.188 117.031 17.02 117.74 17.02C118.608 17.02 119.28 17.2627 119.756 17.748C120.242 18.224 120.498 18.91 120.526 19.806C120.526 20.3753 120.494 20.8093 120.428 21.108H115.612C115.631 22.032 115.846 22.7787 116.256 23.348C116.667 23.908 117.25 24.188 118.006 24.188C118.38 24.188 118.767 24.1227 119.168 23.992C119.579 23.852 119.896 23.6887 120.12 23.502L120.386 24.118C120.116 24.398 119.714 24.6407 119.182 24.846C118.65 25.0513 118.109 25.154 117.558 25.154ZM118.986 20.366C119.014 20.17 119.028 19.9693 119.028 19.764C119.019 19.1573 118.888 18.6813 118.636 18.336C118.394 17.9813 118.006 17.804 117.474 17.804C116.933 17.804 116.499 18 116.172 18.392C115.855 18.784 115.673 19.442 115.626 20.366H118.986ZM121.73 22.9C121.73 22.0227 122.168 21.3787 123.046 20.968C123.923 20.548 125.034 20.324 126.378 20.296V19.904C126.378 19.4653 126.331 19.12 126.238 18.868C126.144 18.616 125.981 18.434 125.748 18.322C125.524 18.2007 125.202 18.14 124.782 18.14C124.306 18.14 123.876 18.21 123.494 18.35C123.12 18.4807 122.747 18.644 122.374 18.84L122.024 18.112C122.145 18.0093 122.369 17.874 122.696 17.706C123.022 17.538 123.4 17.3887 123.83 17.258C124.259 17.1273 124.688 17.062 125.118 17.062C125.78 17.062 126.303 17.1553 126.686 17.342C127.078 17.5193 127.358 17.8087 127.526 18.21C127.694 18.6113 127.778 19.148 127.778 19.82V24.314H128.604V24.93C128.417 24.9767 128.179 25.0233 127.89 25.07C127.61 25.1167 127.362 25.14 127.148 25.14C126.886 25.14 126.709 25.098 126.616 25.014C126.522 24.9393 126.476 24.7667 126.476 24.496V24.034C126.196 24.314 125.85 24.5707 125.44 24.804C125.038 25.0373 124.581 25.154 124.068 25.154C123.396 25.154 122.836 24.9627 122.388 24.58C121.949 24.188 121.73 23.628 121.73 22.9ZM124.67 24.202C124.912 24.202 125.192 24.1273 125.51 23.978C125.827 23.8287 126.116 23.6513 126.378 23.446V21.038C125.36 21.038 124.59 21.1967 124.068 21.514C123.554 21.822 123.298 22.228 123.298 22.732C123.298 23.236 123.419 23.6093 123.662 23.852C123.914 24.0853 124.25 24.202 124.67 24.202ZM131.971 25.14C131.439 25.14 131.043 25.0187 130.781 24.776C130.52 24.5333 130.389 24.118 130.389 23.53V18.154H129.381V17.524C129.428 17.5147 129.559 17.482 129.773 17.426C129.988 17.37 130.133 17.3187 130.207 17.272C130.357 17.188 130.473 17.02 130.557 16.768C130.632 16.5907 130.721 16.306 130.823 15.914C130.926 15.522 130.987 15.2887 131.005 15.214H131.831L131.859 17.23H134.197V18.154H131.859V22.452C131.859 22.984 131.873 23.3573 131.901 23.572C131.939 23.7867 132.009 23.9267 132.111 23.992C132.223 24.0573 132.41 24.09 132.671 24.09C132.923 24.09 133.199 24.0573 133.497 23.992C133.805 23.9267 134.043 23.8567 134.211 23.782L134.421 24.412C134.197 24.58 133.833 24.7433 133.329 24.902C132.835 25.0607 132.382 25.14 131.971 25.14ZM136.58 23.88C136.674 24.02 136.87 24.146 137.168 24.258C137.476 24.37 137.798 24.426 138.134 24.426C138.666 24.426 139.058 24.3233 139.31 24.118C139.562 23.9127 139.688 23.628 139.688 23.264C139.688 23.012 139.609 22.7927 139.45 22.606C139.292 22.4193 139.068 22.256 138.778 22.116C138.498 21.9667 138.092 21.7893 137.56 21.584C136.842 21.3133 136.314 20.9913 135.978 20.618C135.652 20.2353 135.488 19.736 135.488 19.12C135.488 18.7093 135.61 18.35 135.852 18.042C136.104 17.734 136.445 17.496 136.874 17.328C137.313 17.1507 137.798 17.062 138.33 17.062C138.76 17.062 139.133 17.0947 139.45 17.16C139.777 17.2253 140.038 17.2907 140.234 17.356C140.43 17.4213 140.561 17.4633 140.626 17.482V19.218H139.772L139.492 18.182C139.436 18.07 139.287 17.9767 139.044 17.902C138.802 17.818 138.531 17.776 138.232 17.776C137.812 17.776 137.472 17.8693 137.21 18.056C136.958 18.2427 136.832 18.4947 136.832 18.812C136.832 19.092 136.898 19.3253 137.028 19.512C137.168 19.6893 137.341 19.834 137.546 19.946C137.752 20.058 138.032 20.1887 138.386 20.338L138.666 20.45C139.189 20.6553 139.614 20.8513 139.94 21.038C140.267 21.2247 140.538 21.472 140.752 21.78C140.976 22.0787 141.088 22.4473 141.088 22.886C141.088 23.5767 140.818 24.1273 140.276 24.538C139.744 24.9487 139.012 25.154 138.078 25.154C137.621 25.154 137.14 25.0933 136.636 24.972C136.142 24.8413 135.736 24.7107 135.418 24.58V22.788H136.328L136.58 23.88ZM144.587 21.668H143.691L143.271 12.638H144.979L144.587 21.668ZM143.215 24.258C143.215 23.978 143.322 23.74 143.537 23.544C143.751 23.348 143.994 23.25 144.265 23.25C144.563 23.25 144.792 23.334 144.951 23.502C145.109 23.67 145.189 23.88 145.189 24.132C145.189 24.4307 145.081 24.6733 144.867 24.86C144.661 25.0467 144.409 25.14 144.111 25.14C143.868 25.14 143.658 25.0607 143.481 24.902C143.303 24.734 143.215 24.5193 143.215 24.258Z" fill="#E2E2E2"/>
<path d="M6.45453 2L7.17243 1.30385L6.45453 0.563518L5.73663 1.30386L6.45453 2ZM13 21C13.5523 21 14 20.5523 14 20C14 19.4477 13.5523 19 13 19L13 21ZM12.627 6.92886L7.17243 1.30385L5.73663 2.69615L11.1912 8.32115L12.627 6.92886ZM5.73663 1.30386L0.282097 6.92886L1.7179 8.32115L7.17243 2.69615L5.73663 1.30386ZM5.45453 2L5.45453 14L7.45453 14L7.45453 2L5.45453 2ZM12.4545 21L13 21L13 19L12.4545 19L12.4545 21ZM5.45453 14C5.45453 17.866 8.58854 21 12.4545 21L12.4545 19C9.69311 19 7.45453 16.7614 7.45453 14L5.45453 14Z" fill="#E2E2E2"/>
</svg>
